<svg width="43" height="43" fill="none" xmlns="http://www.w3.org/2000/svg"><path d="m27.624 22.933-.966-1.484-.025.016-.024.017 1.015 1.451zm0-2.437-1.05 1.426.079.058.085.05.886-1.534zm-9.767-7.191 1.05-1.426-.05-.037-.052-.033-.948 1.496zm-2.048 1.074 1.771-.005v-.031l-1.77.036zm.041 14.127-1.77.005v.05l.003.05 1.767-.105zm2.123 1.177.857 1.55.082-.045.076-.054-1.015-1.45zm3.277 7.046c-8.41 0-15.23-6.818-15.23-15.229H2.48c0 10.367 8.403 18.77 18.77 18.77v-3.54zM36.48 21.5c0 8.41-6.82 15.23-15.23 15.23v3.54c10.367 0 18.77-8.403 18.77-18.77h-3.54zM21.25 6.27c8.41 0 15.23 6.82 15.23 15.23h3.54c0-10.367-8.403-18.77-18.77-18.77v3.54zm0-3.54c-10.367 0-18.77 8.403-18.77 18.77h3.54c0-8.41 6.82-15.23 15.23-15.23V2.73zm7.34 21.687c.77-.5 1.741-1.394 1.74-2.74-.002-1.386-1.024-2.254-1.82-2.714l-1.772 3.067c.185.107.22.162.193.13a.802.802 0 0 1-.143-.478c0-.254.099-.404.114-.425.008-.01-.047.063-.244.192l1.932 2.968zm.084-5.347-9.767-7.191-2.1 2.851 9.767 7.192 2.1-2.852zm-9.87-7.261c-.833-.528-2.003-.83-3.11-.314-1.205.562-1.679 1.774-1.655 2.92l3.54-.072c-.001-.104.02-.07-.034.034a.768.768 0 0 1-.353.327c-.329.154-.462-.017-.283.096l1.896-2.991zm-4.765 2.575.04 14.127 3.542-.01-.04-14.127-3.542.01zm.044 14.227c.056.946.385 2.208 1.572 2.842 1.169.624 2.386.216 3.175-.22l-1.714-3.1c-.176.098-.245.103-.217.1a.743.743 0 0 1 .425.096.76.76 0 0 1 .327.316c.015.031-.02-.03-.033-.244l-3.535.21zm4.905 2.523 9.65-6.75-2.03-2.902-9.65 6.75 2.03 2.902z" fill="#fff"/></svg>