<svg width="43" height="43" viewBox="0 0 43 43" fill="none" xmlns="http://www.w3.org/2000/svg">
<path d="M27.6238 22.9334L26.6577 21.4493L26.633 21.4654L26.6089 21.4822L27.6238 22.9334ZM27.6238 20.4964L26.5738 21.9223L26.6528 21.9805L26.7377 22.0296L27.6238 20.4964ZM17.8569 13.3045L18.9069 11.8786L18.857 11.8418L18.8045 11.8086L17.8569 13.3045ZM15.8094 14.3787L17.5802 14.3736L17.5801 14.3581L17.5798 14.3426L15.8094 14.3787ZM15.8503 28.5059L14.0795 28.511L14.0796 28.5611L14.0826 28.6112L15.8503 28.5059ZM17.9729 29.6832L18.8304 31.2326L18.9117 31.1876L18.9879 31.1343L17.9729 29.6832ZM21.25 36.7292C12.8392 36.7292 6.02083 29.9108 6.02083 21.5H2.47917C2.47917 31.8668 10.8832 40.2708 21.25 40.2708V36.7292ZM36.4792 21.5C36.4792 29.9108 29.6608 36.7292 21.25 36.7292V40.2708C31.6168 40.2708 40.0208 31.8668 40.0208 21.5H36.4792ZM21.25 6.27083C29.6608 6.27083 36.4792 13.0892 36.4792 21.5H40.0208C40.0208 11.1332 31.6168 2.72917 21.25 2.72917V6.27083ZM21.25 2.72917C10.8832 2.72917 2.47917 11.1332 2.47917 21.5H6.02083C6.02083 13.0892 12.8392 6.27083 21.25 6.27083V2.72917ZM28.5899 24.4174C29.3591 23.9167 30.3315 23.0235 30.3297 21.6772C30.3278 20.2913 29.3056 19.4231 28.5098 18.9632L26.7377 22.0296C26.9231 22.1367 26.9572 22.1924 26.9314 22.1595C26.8932 22.1108 26.7884 21.943 26.788 21.6821C26.7877 21.4277 26.887 21.278 26.9025 21.257C26.91 21.2469 26.8555 21.3205 26.6577 21.4493L28.5899 24.4174ZM28.6738 19.0704L18.9069 11.8786L16.8069 14.7305L26.5738 21.9223L28.6738 19.0704ZM18.8045 11.8086C17.9712 11.2807 16.8009 10.9782 15.6941 11.495C14.4894 12.0574 14.0155 13.2691 14.0389 14.4149L17.5798 14.3426C17.5777 14.2389 17.5993 14.2724 17.5448 14.3766C17.4835 14.494 17.3636 14.6242 17.1924 14.7041C16.8631 14.8578 16.7303 14.6871 16.9093 14.8005L18.8045 11.8086ZM14.0385 14.3839L14.0795 28.511L17.6211 28.5008L17.5802 14.3736L14.0385 14.3839ZM14.0826 28.6112C14.1389 29.5573 14.4679 30.8187 15.6551 31.4528C16.824 32.0771 18.041 31.6694 18.8304 31.2326L17.1155 28.1338C16.94 28.2309 16.871 28.2363 16.8987 28.2325C16.9406 28.2267 17.1135 28.2165 17.3236 28.3287C17.5365 28.4425 17.6287 28.5971 17.6511 28.6447C17.6658 28.6761 17.6308 28.6154 17.618 28.4007L14.0826 28.6112ZM18.9879 31.1343L28.6387 24.3845L26.6089 21.4822L16.958 28.232L18.9879 31.1343Z" fill="white"/>
</svg>
