<svg width="29" height="29" viewBox="0 0 29 29" fill="none" xmlns="http://www.w3.org/2000/svg">
<g id="eva:shopping-cart-outline">
<path id="Vector" d="M24.9179 8.90466C24.7136 8.55076 24.4211 8.25584 24.0689 8.04866C23.7167 7.84149 23.3169 7.72913 22.9083 7.72255H7.77733L7.09171 5.05099C7.02244 4.7931 6.86789 4.56626 6.65324 4.40742C6.43859 4.24858 6.17648 4.16709 5.9096 4.17623H3.54539C3.23187 4.17623 2.9312 4.30077 2.70951 4.52246C2.48782 4.74415 2.36328 5.04482 2.36328 5.35834C2.36328 5.67185 2.48782 5.97252 2.70951 6.19421C2.9312 6.4159 3.23187 6.54044 3.54539 6.54044H5.0112L8.27382 18.6689C8.34309 18.9268 8.49763 19.1536 8.71229 19.3124C8.92694 19.4713 9.18905 19.5528 9.45592 19.5436H20.0949C20.3132 19.543 20.527 19.4819 20.7127 19.3671C20.8984 19.2523 21.0487 19.0884 21.147 18.8935L25.0243 11.1388C25.1923 10.7866 25.2706 10.3982 25.252 10.0084C25.2334 9.61853 25.1186 9.23934 24.9179 8.90466ZM19.362 17.1794H10.3543L8.42749 10.0868H22.9083L19.362 17.1794Z" fill="#4F4A61"/>
<path id="Vector_2" d="M8.86581 25.4535C9.8451 25.4535 10.639 24.6597 10.639 23.6804C10.639 22.7011 9.8451 21.9072 8.86581 21.9072C7.88652 21.9072 7.09265 22.7011 7.09265 23.6804C7.09265 24.6597 7.88652 25.4535 8.86581 25.4535Z" fill="#4F4A61"/>
<path id="Vector_3" d="M20.6878 25.4535C21.6671 25.4535 22.4609 24.6597 22.4609 23.6804C22.4609 22.7011 21.6671 21.9072 20.6878 21.9072C19.7085 21.9072 18.9146 22.7011 18.9146 23.6804C18.9146 24.6597 19.7085 25.4535 20.6878 25.4535Z" fill="#4F4A61"/>
</g>
</svg>
