<svg width="15" height="15" viewBox="0 0 15 15" fill="none" xmlns="http://www.w3.org/2000/svg">
<g id="instagram 1" clip-path="url(#clip0_1_766)">
<g id="&#60;Group&#62;">
<path id="&#60;Path&#62;" d="M10.6375 0.9375H4.3625C2.47092 0.9375 0.9375 2.47092 0.9375 4.3625V10.6375C0.9375 12.5291 2.47092 14.0625 4.3625 14.0625H10.6375C12.5291 14.0625 14.0625 12.5291 14.0625 10.6375V4.3625C14.0625 2.47092 12.5291 0.9375 10.6375 0.9375Z" stroke="#007DB0" stroke-linecap="round" stroke-linejoin="round"/>
<path id="&#60;Path&#62;_2" d="M7.5 10.9375C9.39848 10.9375 10.9375 9.39848 10.9375 7.5C10.9375 5.60152 9.39848 4.0625 7.5 4.0625C5.60152 4.0625 4.0625 5.60152 4.0625 7.5C4.0625 9.39848 5.60152 10.9375 7.5 10.9375Z" stroke="#007DB0" stroke-linecap="round" stroke-linejoin="round"/>
<path id="&#60;Path&#62;_3" d="M11.25 3.4375C11.4226 3.4375 11.5625 3.29759 11.5625 3.125C11.5625 2.95241 11.4226 2.8125 11.25 2.8125C11.0774 2.8125 10.9375 2.95241 10.9375 3.125C10.9375 3.29759 11.0774 3.4375 11.25 3.4375Z" stroke="#007DB0" stroke-linecap="round" stroke-linejoin="round"/>
</g>
</g>
<defs>
<clipPath id="clip0_1_766">
<rect width="15" height="15" fill="white"/>
</clipPath>
</defs>
</svg>
