<svg width="16" height="16" viewBox="0 0 16 16" fill="none" xmlns="http://www.w3.org/2000/svg">
<g id="whatsapp (3) 1" clip-path="url(#clip0_1_756)">
<g id="&#60;Group&#62;">
<path id="&#60;Path&#62;" d="M8.0001 0.333503C6.60972 0.333643 5.24554 0.711885 4.0536 1.42774C2.86166 2.1436 1.88682 3.17012 1.23345 4.39742C0.580073 5.62473 0.272753 7.00661 0.344385 8.39515C0.416017 9.78369 0.863903 11.1266 1.6401 12.2802L0.333435 15.6668L3.8201 14.4202C4.82006 15.0729 5.95866 15.483 7.14515 15.6178C8.33165 15.7526 9.53323 15.6084 10.6541 15.1967C11.775 14.785 12.7843 14.1171 13.6014 13.2463C14.4185 12.3755 15.0209 11.3259 15.3606 10.1811C15.7003 9.03634 15.7679 7.82803 15.558 6.65249C15.3481 5.47695 14.8665 4.3667 14.1516 3.41023C13.4367 2.45375 12.5082 1.67749 11.4402 1.14332C10.3722 0.609157 9.19423 0.33185 8.0001 0.333503Z" stroke="#007DB0" stroke-width="0.666667" stroke-linecap="round" stroke-linejoin="round"/>
<path id="&#60;Path&#62;_2" d="M6.33322 9.66683C7.19989 10.5335 9.11322 11.6668 9.99989 11.6668C10.3888 11.6708 10.7672 11.5403 11.0709 11.2973C11.3747 11.0543 11.5851 10.7138 11.6666 10.3335V9.66683C11.6666 9.66683 10.8466 9.26683 10.3332 9.00016C9.81989 8.7335 8.99989 9.66683 8.99989 9.66683C8.37597 9.46357 7.80617 9.12169 7.33322 8.66683C6.87836 8.19388 6.53648 7.62408 6.33322 7.00016C6.33322 7.00016 7.26655 6.18016 6.99989 5.66683C6.73322 5.1535 6.33322 4.3335 6.33322 4.3335H5.66655C5.28621 4.41496 4.94572 4.62537 4.70273 4.92911C4.45975 5.23284 4.32921 5.61122 4.33322 6.00016C4.33322 6.88683 5.46655 8.80016 6.33322 9.66683Z" stroke="#007DB0" stroke-width="0.666667" stroke-linecap="round" stroke-linejoin="round"/>
</g>
</g>
<defs>
<clipPath id="clip0_1_756">
<rect width="16" height="16" fill="white"/>
</clipPath>
</defs>
</svg>
